<?xml version="1.0" standalone="no"?>
<!DOCTYPE svg PUBLIC "-//W3C//DTD SVG 20010904//EN"
 "http://www.w3.org/TR/2001/REC-SVG-20010904/DTD/svg10.dtd">
<svg version="1.0" xmlns="http://www.w3.org/2000/svg"
 width="200.000000pt" height="200.000000pt" viewBox="0 0 200.000000 200.000000"
 preserveAspectRatio="xMidYMid meet">
<metadata>
Created by potrace 1.15, written by Peter Selinger 2001-2017
</metadata>
<g transform="translate(0.000000,200.000000) scale(0.100000,-0.100000)"
fill="#000000" stroke="none">
<path d="M373 1960 c-35 -14 -56 -65 -48 -117 8 -53 39 -91 82 -99 27 -5 37
-1 63 24 25 26 30 38 30 81 0 41 -5 56 -27 80 -31 34 -67 45 -100 31z"/>
<path d="M350 1662 c-18 -14 -24 -32 -28 -75 -4 -54 -3 -58 32 -93 32 -32 41
-36 69 -30 83 16 101 140 29 196 -31 25 -73 26 -102 2z"/>
<path d="M1218 1603 c12 -8 22 -21 22 -29 0 -7 9 -18 21 -24 11 -7 18 -14 15
-17 -3 -4 -14 1 -25 11 -22 20 -58 28 -67 15 -3 -5 1 -20 8 -32 21 -32 2 -83
-49 -135 -49 -48 -50 -52 -25 -52 11 0 26 -8 35 -18 15 -16 15 -20 -2 -45 -10
-16 -35 -39 -54 -53 -36 -24 -37 -24 -49 -5 -10 16 -15 18 -32 8 -12 -6 -28
-13 -36 -14 -8 -2 -31 -5 -50 -8 -68 -11 -80 -16 -80 -28 0 -7 -13 -21 -30
-30 -16 -10 -30 -22 -30 -27 0 -8 49 2 69 14 5 4 12 -3 16 -14 3 -11 11 -20
17 -20 6 0 6 -6 -2 -15 -41 -49 60 -25 108 26 57 60 67 54 78 -51 7 -70 -8
-120 -37 -120 -10 0 -21 5 -24 10 -13 21 -25 9 -13 -12 17 -31 28 -37 63 -39
l30 -2 -27 -4 c-33 -5 -34 -7 -8 -33 11 -11 20 -15 20 -10 0 15 19 12 36 -4
19 -20 19 -20 -21 -36 -47 -18 -53 -43 -21 -81 14 -17 26 -36 26 -43 0 -11
-56 -40 -72 -37 -5 0 -8 -4 -8 -10 0 -19 -68 0 -95 27 -14 14 -26 31 -28 37
-1 6 -8 18 -15 25 -10 11 -10 17 -1 28 8 10 8 14 0 14 -6 0 -11 7 -11 16 0 8
-4 13 -9 10 -5 -3 -11 1 -15 9 -8 22 -66 20 -66 -2 0 -12 -7 -8 -22 14 -23 32
-38 42 -38 24 0 -6 5 -13 10 -16 6 -3 10 -14 10 -24 0 -9 11 -32 24 -49 20
-27 23 -41 19 -87 -3 -32 2 -87 11 -128 8 -39 17 -83 20 -97 5 -30 -15 -52
-35 -39 -10 6 -11 11 -3 16 12 9 11 19 -11 118 -13 54 -14 79 -6 112 15 60 13
64 -10 18 -25 -50 -31 -119 -12 -163 8 -19 10 -31 5 -28 -5 3 -14 -6 -21 -21
-11 -24 -10 -25 4 -13 13 11 15 10 9 -4 -3 -9 -11 -16 -17 -16 -6 0 -2 -6 9
-14 10 -8 17 -16 14 -18 -3 -2 -23 -12 -45 -23 -35 -18 -40 -24 -40 -55 0 -26
-4 -34 -15 -32 -8 2 -12 0 -8 -4 11 -10 -11 -34 -32 -34 -17 0 -18 5 -11 39 1
2 7 -1 14 -7 10 -8 13 -5 15 14 2 22 -1 23 -18 14 -11 -6 -20 -7 -21 -3 0 4
-7 -8 -14 -27 l-13 -35 2 36 c2 20 6 41 10 48 4 6 2 11 -3 11 -6 0 -11 7 -11
15 0 7 -6 18 -14 22 -18 10 -25 55 -9 60 7 3 15 -6 18 -20 4 -13 13 -24 21
-24 20 0 8 37 -19 58 -13 11 -21 29 -21 51 -1 30 -4 34 -21 30 -11 -3 -14 -7
-8 -9 9 -3 9 -10 1 -28 -8 -18 -8 -28 0 -38 7 -8 9 -17 5 -20 -11 -12 -23 -8
-23 8 0 8 -4 15 -8 15 -4 0 -14 16 -21 35 -7 19 -17 35 -22 35 -6 0 -7 4 -4
10 3 5 0 10 -8 10 -17 0 -22 -66 -6 -76 10 -6 49 -88 49 -103 0 -5 8 -17 17
-27 10 -10 18 -34 19 -56 1 -38 0 -38 -37 -38 -21 0 -41 5 -45 12 -4 7 -3 8 4
4 8 -5 12 3 12 24 0 18 -4 29 -10 25 -6 -3 -10 4 -10 18 0 14 -7 41 -15 60 -8
20 -15 49 -16 64 0 27 0 28 -10 5 -6 -15 -5 -31 2 -44 9 -16 8 -19 -2 -16 -7
2 -17 22 -22 44 -4 21 -12 43 -17 48 -14 14 -12 -69 3 -126 16 -60 16 -100 0
-106 -9 -2 -13 8 -14 30 l-1 33 -9 -32 c-13 -45 -21 -41 -13 6 4 24 2 41 -5
45 -7 5 -11 -6 -11 -33 0 -23 -3 -41 -7 -41 -5 0 -8 23 -9 51 0 30 -6 54 -14
59 -7 4 -10 15 -7 24 3 8 2 18 -3 21 -16 10 -17 -42 -2 -113 8 -37 7 -44 -9
-52 -10 -6 -22 -10 -26 -10 -10 0 -38 70 -34 85 1 6 -3 5 -9 -1 -10 -10 -30
-127 -33 -196 -1 -9 -5 -14 -10 -11 -5 3 -14 -1 -19 -8 -6 -9 -7 -1 -3 25 12
70 14 126 5 126 -5 0 -11 -10 -15 -22 -3 -13 -15 -41 -25 -63 -22 -48 -60
-152 -60 -166 0 -6 124 -9 345 -8 286 0 345 3 345 14 0 8 -8 19 -17 25 -15 10
-15 11 -1 6 10 -3 18 2 21 15 3 12 0 19 -9 19 -8 0 -14 9 -14 20 0 27 -18 26
-22 -2 -2 -11 -11 -22 -21 -24 -13 -2 -15 1 -9 9 12 15 21 77 11 77 -4 0 -9
13 -11 30 -3 16 -1 30 3 30 4 0 17 16 29 35 22 36 50 47 50 20 0 -8 5 -15 10
-15 6 0 10 5 10 12 0 6 3 8 6 5 14 -13 13 -90 -1 -104 -14 -13 -10 -47 4 -38
4 2 7 -27 7 -65 l-2 -70 43 0 c29 0 45 5 52 18 10 16 10 16 11 0 0 -15 9 -18
49 -18 l50 0 -15 27 c-7 16 -14 35 -14 44 0 9 -9 19 -20 22 -13 3 -20 14 -20
30 0 14 -5 29 -10 32 -6 4 -4 12 5 21 18 19 20 44 3 44 -9 0 -8 4 2 10 23 15
36 12 38 -10 1 -11 3 -29 4 -39 1 -11 6 -19 11 -18 14 3 45 -107 36 -129 -13
-32 -11 -34 36 -34 25 0 45 2 45 4 0 1 -5 17 -11 33 -8 24 -7 39 5 67 8 20 20
36 25 36 6 0 18 11 27 25 17 25 16 26 -42 79 -68 61 -185 228 -214 304 -11 29
-20 70 -20 93 l0 40 48 -39 c26 -21 67 -50 92 -65 66 -38 111 -85 127 -132 9
-28 13 -30 52 -27 24 2 41 -1 41 -7 0 -6 -8 -11 -17 -12 -15 0 -15 -2 2 -9 11
-5 14 -9 8 -9 -8 -1 -13 -14 -13 -31 0 -41 37 -50 78 -20 32 23 52 20 53 -8 0
-14 2 -13 8 3 8 19 8 19 15 -2 4 -14 12 -20 22 -16 7 3 14 0 14 -5 0 -14 -51
-52 -116 -86 -86 -46 -150 -109 -163 -160 -6 -25 -11 -47 -11 -50 0 -3 209 -6
463 -6 l464 0 6 122 c10 177 8 274 -4 302 -19 42 -137 95 -337 152 l-184 52
-49 53 -48 52 34 71 c29 61 53 161 48 203 0 7 4 10 9 7 6 -4 9 -1 6 6 -2 8 4
22 13 31 21 21 34 79 25 114 -5 19 -13 25 -34 25 -25 0 -28 3 -24 28 2 15 -6
64 -17 109 -33 134 -78 210 -157 262 -47 31 -89 44 -46 14z"/>
<path d="M347 1400 c-71 -56 -30 -190 57 -190 26 0 40 7 60 31 77 92 -25 231
-117 159z"/>
<path d="M889 981 c-22 -21 -39 -48 -39 -59 0 -21 23 -46 33 -36 3 4 4 -6 1
-22 -3 -15 -2 -39 1 -53 l6 -25 30 32 c17 18 36 32 43 32 8 0 19 7 26 15 11
13 8 15 -14 15 -20 0 -26 5 -26 23 0 12 4 29 10 37 5 9 5 19 -2 27 -6 7 -8 22
-5 33 8 33 -21 24 -64 -19z"/>
<path d="M42 367 l-42 -43 0 -129 1 -130 33 90 c18 50 50 123 70 164 30 58 35
76 24 82 -25 16 -44 9 -86 -34z"/>
</g>
</svg>
